<svg width="46" height="46" viewBox="0 0 46 46" fill="none" xmlns="http://www.w3.org/2000/svg">
<path d="M24.7633 4.33167L37.2408 11.0592C38.6975 11.845 38.6975 14.0875 37.2408 14.8733L24.7633 21.6008C23.6517 22.195 22.3483 22.195 21.2367 21.6008L8.75917 14.8733C7.30251 14.0875 7.30251 11.845 8.75917 11.0592L21.2367 4.33167C22.3483 3.73751 23.6517 3.73751 24.7633 4.33167Z" stroke="white" stroke-width="3" stroke-linecap="round" stroke-linejoin="round"/>
<path d="M6.91916 19.4158L18.515 25.2233C19.9525 25.9516 20.8725 27.4275 20.8725 29.0375V40.0008C20.8725 41.5917 19.205 42.6075 17.7867 41.8983L6.19083 36.0908C4.75333 35.3625 3.83333 33.8867 3.83333 32.2767V21.3133C3.83333 19.7225 5.50083 18.7066 6.91916 19.4158Z" stroke="white" stroke-width="3" stroke-linecap="round" stroke-linejoin="round"/>
<path d="M39.0808 19.4158L27.485 25.2233C26.0475 25.9516 25.1275 27.4275 25.1275 29.0375V40.0008C25.1275 41.5917 26.795 42.6075 28.2133 41.8983L39.8092 36.0908C41.2467 35.3625 42.1667 33.8867 42.1667 32.2767V21.3133C42.1667 19.7225 40.4992 18.7066 39.0808 19.4158Z" stroke="white" stroke-width="3" stroke-linecap="round" stroke-linejoin="round"/>
</svg>
