<svg width="46" height="47" viewBox="0 0 46 47" fill="none" xmlns="http://www.w3.org/2000/svg">
<path d="M12.4583 42.6667V29.25" stroke="#640EF1" stroke-width="3" stroke-miterlimit="10" stroke-linecap="round" stroke-linejoin="round"/>
<path d="M12.4583 10.0833V4.33325" stroke="#640EF1" stroke-width="3" stroke-miterlimit="10" stroke-linecap="round" stroke-linejoin="round"/>
<path d="M33.5417 42.6667V36.9167" stroke="#640EF1" stroke-width="3" stroke-miterlimit="10" stroke-linecap="round" stroke-linejoin="round"/>
<path d="M33.5417 17.7499V4.33325" stroke="#640EF1" stroke-width="3" stroke-miterlimit="10" stroke-linecap="round" stroke-linejoin="round"/>
<path d="M18.2083 13.9166V25.4166C18.2083 27.5249 17.25 29.2499 14.375 29.2499H10.5417C7.66668 29.2499 6.70834 27.5249 6.70834 25.4166V13.9166C6.70834 11.8083 7.66668 10.0833 10.5417 10.0833H14.375C17.25 10.0833 18.2083 11.8083 18.2083 13.9166Z" stroke="#640EF1" stroke-width="3" stroke-miterlimit="10" stroke-linecap="round" stroke-linejoin="round"/>
<path d="M39.2917 21.5833V33.0833C39.2917 35.1917 38.3333 36.9167 35.4583 36.9167H31.625C28.75 36.9167 27.7917 35.1917 27.7917 33.0833V21.5833C27.7917 19.475 28.75 17.75 31.625 17.75H35.4583C38.3333 17.75 39.2917 19.475 39.2917 21.5833Z" stroke="#640EF1" stroke-width="3" stroke-miterlimit="10" stroke-linecap="round" stroke-linejoin="round"/>
</svg>
