<svg width="46" height="46" viewBox="0 0 46 46" fill="none" xmlns="http://www.w3.org/2000/svg">
<path d="M10.6183 21.3132C1.64827 21.9457 1.64827 34.9982 10.6183 35.6307H14.2984" stroke="#640EF1" stroke-width="3" stroke-miterlimit="10" stroke-linecap="round" stroke-linejoin="round"/>
<path d="M10.7142 21.3133C4.56172 4.19744 30.5133 -2.64505 33.4841 15.3333C41.7833 16.3875 45.1375 27.4466 38.8509 32.9475C36.9342 34.6916 34.4617 35.6499 31.8742 35.6308H31.7016" stroke="#640EF1" stroke-width="3" stroke-miterlimit="10" stroke-linecap="round" stroke-linejoin="round"/>
<path d="M32.5833 31.6825C32.5833 33.1008 32.2766 34.4424 31.7016 35.6308C31.5483 35.9758 31.3759 36.3016 31.1842 36.6083C29.5359 39.3875 26.4883 41.2658 23 41.2658C19.5117 41.2658 16.4641 39.3875 14.8158 36.6083C14.6241 36.3016 14.4517 35.9758 14.2984 35.6308C13.7234 34.4424 13.4167 33.1008 13.4167 31.6825C13.4167 26.3925 17.71 22.0991 23 22.0991C28.29 22.0991 32.5833 26.3925 32.5833 31.6825Z" stroke="#640EF1" stroke-width="3" stroke-miterlimit="10" stroke-linecap="round" stroke-linejoin="round"/>
<path d="M20.01 31.6825L21.9075 33.58L25.99 29.8042" stroke="#640EF1" stroke-width="3" stroke-linecap="round" stroke-linejoin="round"/>
</svg>
