<svg width="46" height="46" viewBox="0 0 46 46" fill="none" xmlns="http://www.w3.org/2000/svg">
<path d="M18.4 38.3333H27.6C35.2667 38.3333 38.3333 35.2666 38.3333 27.6V18.4C38.3333 10.7333 35.2667 7.66663 27.6 7.66663H18.4C10.7333 7.66663 7.66666 10.7333 7.66666 18.4V27.6C7.66666 35.2666 10.7333 38.3333 18.4 38.3333Z" stroke="#640EF1" stroke-width="3" stroke-linecap="round" stroke-linejoin="round"/>
<path d="M20.125 32.5833H25.875C30.6667 32.5833 32.5833 30.6666 32.5833 25.875V20.125C32.5833 15.3333 30.6667 13.4166 25.875 13.4166H20.125C15.3333 13.4166 13.4167 15.3333 13.4167 20.125V25.875C13.4167 30.6666 15.3333 32.5833 20.125 32.5833Z" stroke="#640EF1" stroke-width="3" stroke-linecap="round" stroke-linejoin="round"/>
<path d="M15.3525 7.66671V3.83337" stroke="#640EF1" stroke-width="3" stroke-linecap="round" stroke-linejoin="round"/>
<path d="M23 7.66671V3.83337" stroke="#640EF1" stroke-width="3" stroke-linecap="round" stroke-linejoin="round"/>
<path d="M30.6667 7.66671V3.83337" stroke="#640EF1" stroke-width="3" stroke-linecap="round" stroke-linejoin="round"/>
<path d="M38.3333 15.3334H42.1667" stroke="#640EF1" stroke-width="3" stroke-linecap="round" stroke-linejoin="round"/>
<path d="M38.3333 23H42.1667" stroke="#640EF1" stroke-width="3" stroke-linecap="round" stroke-linejoin="round"/>
<path d="M38.3333 30.6666H42.1667" stroke="#640EF1" stroke-width="3" stroke-linecap="round" stroke-linejoin="round"/>
<path d="M30.6667 38.3334V42.1667" stroke="#640EF1" stroke-width="3" stroke-linecap="round" stroke-linejoin="round"/>
<path d="M23.0192 38.3334V42.1667" stroke="#640EF1" stroke-width="3" stroke-linecap="round" stroke-linejoin="round"/>
<path d="M15.3525 38.3334V42.1667" stroke="#640EF1" stroke-width="3" stroke-linecap="round" stroke-linejoin="round"/>
<path d="M3.83334 15.3334H7.66667" stroke="#640EF1" stroke-width="3" stroke-linecap="round" stroke-linejoin="round"/>
<path d="M3.83334 23H7.66667" stroke="#640EF1" stroke-width="3" stroke-linecap="round" stroke-linejoin="round"/>
<path d="M3.83334 30.6666H7.66667" stroke="#640EF1" stroke-width="3" stroke-linecap="round" stroke-linejoin="round"/>
<path d="M23 18.5917L21.1983 21.735C20.7958 22.425 21.1217 23 21.9267 23H24.0733C24.8783 23 25.2042 23.575 24.8017 24.265L23 27.4083" stroke="#640EF1" stroke-width="3" stroke-linecap="round" stroke-linejoin="round"/>
</svg>
