<svg width="46" height="46" viewBox="0 0 46 46" fill="none" xmlns="http://www.w3.org/2000/svg">
<path d="M18.4 38.3334H27.6C35.2667 38.3334 38.3333 35.2667 38.3333 27.6001V18.4001C38.3333 10.7334 35.2667 7.66675 27.6 7.66675H18.4C10.7333 7.66675 7.66666 10.7334 7.66666 18.4001V27.6001C7.66666 35.2667 10.7333 38.3334 18.4 38.3334Z" stroke="white" stroke-width="3" stroke-linecap="round" stroke-linejoin="round"/>
<path d="M20.125 32.5834H25.875C30.6667 32.5834 32.5833 30.6667 32.5833 25.8751V20.1251C32.5833 15.3334 30.6667 13.4167 25.875 13.4167H20.125C15.3333 13.4167 13.4167 15.3334 13.4167 20.1251V25.8751C13.4167 30.6667 15.3333 32.5834 20.125 32.5834Z" stroke="white" stroke-width="3" stroke-linecap="round" stroke-linejoin="round"/>
<path d="M15.3525 7.66659V3.83325" stroke="white" stroke-width="3" stroke-linecap="round" stroke-linejoin="round"/>
<path d="M23 7.66659V3.83325" stroke="white" stroke-width="3" stroke-linecap="round" stroke-linejoin="round"/>
<path d="M30.6667 7.66659V3.83325" stroke="white" stroke-width="3" stroke-linecap="round" stroke-linejoin="round"/>
<path d="M38.3333 15.3333H42.1667" stroke="white" stroke-width="3" stroke-linecap="round" stroke-linejoin="round"/>
<path d="M38.3333 23H42.1667" stroke="white" stroke-width="3" stroke-linecap="round" stroke-linejoin="round"/>
<path d="M38.3333 30.6667H42.1667" stroke="white" stroke-width="3" stroke-linecap="round" stroke-linejoin="round"/>
<path d="M30.6667 38.3333V42.1666" stroke="white" stroke-width="3" stroke-linecap="round" stroke-linejoin="round"/>
<path d="M23.0192 38.3333V42.1666" stroke="white" stroke-width="3" stroke-linecap="round" stroke-linejoin="round"/>
<path d="M15.3525 38.3333V42.1666" stroke="white" stroke-width="3" stroke-linecap="round" stroke-linejoin="round"/>
<path d="M3.83334 15.3333H7.66668" stroke="white" stroke-width="3" stroke-linecap="round" stroke-linejoin="round"/>
<path d="M3.83334 23H7.66668" stroke="white" stroke-width="3" stroke-linecap="round" stroke-linejoin="round"/>
<path d="M3.83334 30.6667H7.66668" stroke="white" stroke-width="3" stroke-linecap="round" stroke-linejoin="round"/>
<path d="M23 18.5916L21.1983 21.7349C20.7958 22.4249 21.1217 22.9999 21.9267 22.9999H24.0733C24.8783 22.9999 25.2042 23.5749 24.8017 24.2649L23 27.4082" stroke="white" stroke-width="3" stroke-linecap="round" stroke-linejoin="round"/>
</svg>
