<svg width="47" height="47" viewBox="0 0 47 47" fill="none" xmlns="http://www.w3.org/2000/svg">
<path d="M32.675 36.8784H14.6583C13.8533 36.8784 12.9525 36.2459 12.6841 35.4793L4.74914 13.2843C3.61831 10.1026 4.94081 9.1251 7.66247 11.0801L15.1375 16.4276C16.3833 17.2901 17.8016 16.8493 18.3383 15.4501L21.7116 6.46094C22.785 3.58594 24.5675 3.58594 25.6408 6.46094L29.0141 15.4501C29.5508 16.8493 30.9691 17.2901 32.1958 16.4276L39.2108 11.4251C42.2008 9.27844 43.6383 10.3709 42.4116 13.8401L34.6683 35.5176C34.3808 36.2459 33.48 36.8784 32.675 36.8784Z" stroke="white" stroke-width="3" stroke-linecap="round" stroke-linejoin="round"/>
<path d="M13.125 42.6667H34.2083" stroke="white" stroke-width="3" stroke-linecap="round" stroke-linejoin="round"/>
<path d="M18.875 27.3333H28.4583" stroke="white" stroke-width="3" stroke-linecap="round" stroke-linejoin="round"/>
</svg>
