<svg width="46" height="46" viewBox="0 0 46 46" fill="none" xmlns="http://www.w3.org/2000/svg">
<path d="M11.5 11.9792V15.8125" stroke="white" stroke-width="3" stroke-linecap="round" stroke-linejoin="round"/>
<path d="M42.1667 23V17.25C42.1667 7.66665 38.3333 3.83331 28.75 3.83331H17.25C7.66668 3.83331 3.83334 7.66665 3.83334 17.25V28.75C3.83334 38.3333 7.66668 42.1666 17.25 42.1666H23" stroke="white" stroke-width="3" stroke-linecap="round" stroke-linejoin="round"/>
<path d="M19.1667 11.9792V15.8125" stroke="white" stroke-width="3" stroke-linecap="round" stroke-linejoin="round"/>
<path d="M11.5 30.6667V34.5" stroke="white" stroke-width="3" stroke-linecap="round" stroke-linejoin="round"/>
<path d="M19.1667 30.6667V34.5" stroke="white" stroke-width="3" stroke-linecap="round" stroke-linejoin="round"/>
<path d="M26.8333 13.8958H34.5" stroke="white" stroke-width="3" stroke-linecap="round" stroke-linejoin="round"/>
<path d="M3.83334 23H42.1667" stroke="white" stroke-width="3" stroke-linecap="round" stroke-linejoin="round"/>
<path d="M41.3233 38.9659C40.25 40.825 38.2375 42.0708 35.9375 42.0708C32.5067 42.0708 30.3983 38.6208 30.3983 38.6208M30.5325 32.7558C31.6058 30.8775 33.6183 29.6317 35.9375 29.6317C40.0967 29.6317 42.1667 33.0817 42.1667 33.0817M42.1667 29.2292V33.0625H38.3333M34.2316 38.6017H30.3983V42.1667" stroke="white" stroke-width="3" stroke-linecap="round" stroke-linejoin="round"/>
</svg>
