<svg width="25" height="24" viewBox="0 0 25 24" fill="none" xmlns="http://www.w3.org/2000/svg">
<path d="M12.5 22C18.0228 22 22.5 17.5228 22.5 12C22.5 6.47715 18.0228 2 12.5 2C6.97715 2 2.5 6.47715 2.5 12C2.5 17.5228 6.97715 22 12.5 22Z" stroke="#640EF1" stroke-width="2" stroke-linecap="round" stroke-linejoin="round"/>
<path d="M8.50001 3H9.50001C7.55001 8.84 7.55001 15.16 9.50001 21H8.50001" stroke="#640EF1" stroke-width="2" stroke-linecap="round" stroke-linejoin="round"/>
<path d="M15.5 3C17.45 8.84 17.45 15.16 15.5 21" stroke="#640EF1" stroke-width="2" stroke-linecap="round" stroke-linejoin="round"/>
<path d="M3.5 16V15C9.34 16.95 15.66 16.95 21.5 15V16" stroke="#640EF1" stroke-width="2" stroke-linecap="round" stroke-linejoin="round"/>
<path d="M3.5 9.0001C9.34 7.0501 15.66 7.0501 21.5 9.0001" stroke="#640EF1" stroke-width="2" stroke-linecap="round" stroke-linejoin="round"/>
</svg>
