<svg width="46" height="46" viewBox="0 0 46 46" fill="none" xmlns="http://www.w3.org/2000/svg">
<path d="M17.1925 42.1667H28.6925C38.2758 42.1667 42.1092 38.3334 42.1092 28.75V17.25C42.1092 7.66671 38.2758 3.83337 28.6925 3.83337H17.1925C7.60917 3.83337 3.77583 7.66671 3.77583 17.25V28.75C3.77583 38.3334 7.60917 42.1667 17.1925 42.1667Z" stroke="#640EF1" stroke-width="3" stroke-linecap="round" stroke-linejoin="round"/>
<path d="M3.77583 24.3417L15.2758 24.3034C16.7133 24.3034 18.3233 25.3959 18.86 26.7375L21.045 32.2575C21.5433 33.5034 22.3292 33.5034 22.8275 32.2575L27.2167 21.1217C27.6383 20.0484 28.4242 20.01 28.9608 21.0259L30.9542 24.8017C31.5483 25.9325 33.0817 26.8525 34.3467 26.8525H42.1283" stroke="#640EF1" stroke-width="3" stroke-linecap="round" stroke-linejoin="round"/>
</svg>
