<svg width="47" height="47" viewBox="0 0 47 47" fill="none" xmlns="http://www.w3.org/2000/svg">
<path d="M20.7724 5.02424L11.2083 8.6084C9.00411 9.43256 7.20245 12.0392 7.20245 14.3967V28.6375C7.20245 30.8992 8.69747 33.87 10.5183 35.2309L18.76 41.3834C21.4625 43.4151 25.9091 43.4151 28.6116 41.3834L36.8533 35.2309C38.6741 33.87 40.1691 30.8992 40.1691 28.6375V14.3967C40.1691 12.0392 38.3674 9.43256 36.1633 8.6084L26.5991 5.02424C24.9699 4.43007 22.3633 4.43007 20.7724 5.02424Z" stroke="white" stroke-width="3" stroke-linecap="round" stroke-linejoin="round"/>
<path d="M23.6666 21.6801C23.59 21.6801 23.4941 21.6801 23.4175 21.6801C21.6158 21.6226 20.1783 20.1275 20.1783 18.3067C20.1783 16.4475 21.6925 14.9333 23.5516 14.9333C25.4108 14.9333 26.925 16.4475 26.925 18.3067C26.9058 20.1467 25.4683 21.6226 23.6666 21.6801Z" stroke="white" stroke-width="3" stroke-linecap="round" stroke-linejoin="round"/>
<path d="M19.8525 27.0467C18.0125 28.2734 18.0125 30.2858 19.8525 31.5125C21.9416 32.9117 25.3725 32.9117 27.4616 31.5125C29.3016 30.2858 29.3016 28.2734 27.4616 27.0467C25.3916 25.6475 21.9608 25.6475 19.8525 27.0467Z" stroke="white" stroke-width="3" stroke-linecap="round" stroke-linejoin="round"/>
</svg>
