<svg width="25" height="24" viewBox="0 0 25 24" fill="none" xmlns="http://www.w3.org/2000/svg">
<path d="M22.5 15V9C22.5 4 20.5 2 15.5 2H9.5C4.5 2 2.5 4 2.5 9V15C2.5 20 4.5 22 9.5 22H15.5C20.5 22 22.5 20 22.5 15Z" stroke="#640EF1" stroke-width="2" stroke-linecap="round" stroke-linejoin="round"/>
<path d="M3.01999 7.11011H21.98" stroke="#640EF1" stroke-width="2" stroke-linecap="round" stroke-linejoin="round"/>
<path d="M9.01999 2.11011V6.97011" stroke="#640EF1" stroke-width="2" stroke-linecap="round" stroke-linejoin="round"/>
<path d="M15.98 2.11011V6.52011" stroke="#640EF1" stroke-width="2" stroke-linecap="round" stroke-linejoin="round"/>
<path d="M10.25 14.4501V13.2501C10.25 11.7101 11.34 11.0801 12.67 11.8501L13.71 12.4501L14.75 13.0501C16.08 13.8201 16.08 15.0801 14.75 15.8501L13.71 16.4501L12.67 17.0501C11.34 17.8201 10.25 17.1901 10.25 15.6501V14.4501V14.4501Z" stroke="#640EF1" stroke-width="2" stroke-miterlimit="10" stroke-linecap="round" stroke-linejoin="round"/>
</svg>
