<svg width="40" height="40" viewBox="0 0 40 40" fill="none" xmlns="http://www.w3.org/2000/svg">
<path d="M22.0246 32.1116C22.0606 28.4402 21.1298 25.4546 19.9458 25.443C18.7617 25.4314 17.7727 28.3983 17.7369 32.0697C17.701 35.7411 18.6318 38.7268 19.8158 38.7383C20.9998 38.7499 21.9888 35.783 22.0246 32.1116Z" fill="#640EF1"/>
<path d="M15.1576 31.2777C17.1728 28.2086 18.0041 25.1937 17.0144 24.5438C16.0245 23.8939 13.5884 25.855 11.5732 28.9241C9.55797 31.9933 8.72669 35.0081 9.71645 35.6581C10.7063 36.308 13.1423 34.3469 15.1576 31.2777Z" fill="#640EF1"/>
<path d="M9.82334 26.8744C13.1781 25.3822 15.5074 23.2955 15.0261 22.2136C14.5449 21.1317 11.4353 21.4643 8.08062 22.9565C4.72593 24.4487 2.39655 26.5354 2.87779 27.6174C3.35902 28.6993 6.46865 28.3666 9.82334 26.8744Z" fill="#640EF1"/>
<path d="M14.6235 19.1796C14.8037 18.0093 12.0079 16.6078 8.37911 16.0492C4.75022 15.4907 1.66243 15.9867 1.4823 17.157C1.30217 18.3273 4.09791 19.7287 7.72678 20.2873C11.3556 20.8459 14.4434 20.3499 14.6235 19.1796Z" fill="#640EF1"/>
<path d="M15.9264 16.3916C16.7106 15.5044 15.116 12.8141 12.3649 10.3826C9.61375 7.95121 6.74784 6.6994 5.9637 7.58665C5.17956 8.47392 6.77412 11.1642 9.52527 13.5957C12.2764 16.0271 15.1423 17.2789 15.9264 16.3916Z" fill="#640EF1"/>
<path d="M18.5211 14.7623C19.6605 14.4399 19.7737 11.3145 18.774 7.78164C17.7743 4.24877 16.0402 1.64618 14.9009 1.96859C13.7615 2.29099 13.6483 5.41631 14.648 8.94921C15.6477 12.482 17.3818 15.0847 18.5211 14.7623Z" fill="#640EF1"/>
<path d="M25.5667 9.05912C26.6359 5.54664 26.5844 2.4197 25.4516 2.07489C24.3188 1.73007 22.5338 4.29796 21.4646 7.81043C20.3954 11.3229 20.447 14.4498 21.5798 14.7946C22.7126 15.1394 24.4976 12.5716 25.5667 9.05912Z" fill="#640EF1"/>
<path d="M30.6011 13.8052C33.3993 11.428 35.0462 8.76935 34.2795 7.86698C33.5128 6.96458 30.623 8.16015 27.8249 10.5373C25.0267 12.9145 23.3799 15.5731 24.1466 16.4755C24.9132 17.3779 27.8031 16.1824 30.6011 13.8052Z" fill="#640EF1"/>
<path d="M32.2658 20.5215C35.905 20.0346 38.7278 18.6885 38.5707 17.5149C38.4138 16.3413 35.3363 15.7845 31.6971 16.2713C28.058 16.7582 25.2351 18.1043 25.3922 19.278C25.5492 20.4516 28.6266 21.0084 32.2658 20.5215Z" fill="#640EF1"/>
<path d="M36.9603 27.9528C37.4628 26.8806 35.175 24.7484 31.8504 23.1903C28.5258 21.6322 25.4234 21.2384 24.9209 22.3106C24.4184 23.3828 26.7062 25.515 30.0308 27.0731C33.3554 28.6311 36.4579 29.025 36.9603 27.9528Z" fill="#640EF1"/>
<path d="M29.9671 35.8639C30.9695 35.2337 30.1978 32.203 28.2435 29.0947C26.2892 25.9865 23.8922 23.9778 22.8898 24.608C21.8874 25.2382 22.6591 28.269 24.6134 31.3772C26.5678 34.4854 28.9647 36.4942 29.9671 35.8639Z" fill="#640EF1"/>
</svg>
